<svg width="172" height="36" viewBox="0 0 172 36" fill="none" xmlns="http://www.w3.org/2000/svg">
<path d="M34.257 17.5164L29.1382 5.13855H18.6248L23.9012 17.5567L18.546 29.9749H29.1382L34.257 17.5164Z" fill="white"/>
<path d="M0 17.5164L5.11887 5.13855H15.6322L10.3559 17.5567L15.711 29.9749H5.11887L0 17.5164Z" fill="white"/>
<path d="M11.7734 20.852L18.6248 5.13855L22.5522 14.3818L15.711 29.9749L11.7734 20.852Z" fill="white"/>
<path d="M52.3746 6.6823C52.3259 6.19164 52.1171 5.81046 51.7481 5.53877C51.3791 5.26709 50.8783 5.13124 50.2457 5.13124C49.8159 5.13124 49.4529 5.19207 49.1569 5.31372C48.8609 5.43132 48.6338 5.59554 48.4757 5.80641C48.3216 6.01727 48.2445 6.25652 48.2445 6.52415C48.2364 6.74718 48.2831 6.94182 48.3844 7.10808C48.4899 7.27433 48.6338 7.41829 48.8163 7.53994C48.9988 7.65753 49.2096 7.76094 49.4489 7.85015C49.6881 7.93531 49.9436 8.0083 50.2153 8.06912L51.3345 8.33675C51.8779 8.45841 52.3766 8.62061 52.8308 8.82336C53.285 9.02611 53.6783 9.2755 54.0108 9.57152C54.3433 9.86753 54.6008 10.2163 54.7833 10.6177C54.9698 11.0192 55.0651 11.4794 55.0692 11.9985C55.0651 12.7608 54.8705 13.4218 54.4853 13.9814C54.1041 14.5369 53.5526 14.9688 52.8308 15.277C52.1131 15.5811 51.2473 15.7332 50.2335 15.7332C49.2279 15.7332 48.352 15.5791 47.6059 15.2709C46.8638 14.9627 46.2839 14.5065 45.8663 13.9023C45.4526 13.294 45.2357 12.5418 45.2154 11.6457H47.764C47.7924 12.0633 47.912 12.4121 48.1229 12.6919C48.3378 12.9676 48.6237 13.1765 48.9805 13.3184C49.3414 13.4562 49.749 13.5252 50.2031 13.5252C50.6492 13.5252 51.0364 13.4603 51.3649 13.3305C51.6974 13.2008 51.9549 13.0203 52.1374 12.7892C52.3199 12.5581 52.4111 12.2925 52.4111 11.9924C52.4111 11.7126 52.328 11.4774 52.1617 11.2868C51.9995 11.0962 51.7603 10.934 51.444 10.8002C51.1317 10.6664 50.7485 10.5447 50.2944 10.4352L48.938 10.0946C47.8877 9.83915 47.0584 9.43973 46.4502 8.89635C45.8419 8.35298 45.5398 7.62104 45.5439 6.70054C45.5398 5.94631 45.7406 5.28736 46.1461 4.72371C46.5556 4.16006 47.1172 3.72009 47.8309 3.40379C48.5446 3.0875 49.3556 2.92935 50.264 2.92935C51.1885 2.92935 51.9955 3.0875 52.6848 3.40379C53.3782 3.72009 53.9176 4.16006 54.3028 4.72371C54.688 5.28736 54.8867 5.94022 54.8989 6.6823H52.3746ZM61.7615 6.21394V8.16036H56.1352V6.21394H61.7615ZM57.4125 3.97555H60.0037V12.6858C60.0037 12.925 60.0402 13.1116 60.1132 13.2454C60.1861 13.3751 60.2875 13.4664 60.4173 13.5191C60.5511 13.5718 60.7052 13.5982 60.8796 13.5982C61.0012 13.5982 61.1229 13.588 61.2445 13.5678C61.3662 13.5434 61.4594 13.5252 61.5243 13.513L61.9318 15.4412C61.8021 15.4817 61.6196 15.5284 61.3844 15.5811C61.1492 15.6379 60.8633 15.6723 60.5268 15.6845C59.9023 15.7088 59.3549 15.6257 58.8845 15.4351C58.4181 15.2445 58.0552 14.9485 57.7957 14.5471C57.5362 14.1456 57.4084 13.6387 57.4125 13.0264V3.97555ZM69.4408 11.5788V6.21394H72.0319V15.5568H69.5442V13.8597H69.4469C69.236 14.4072 68.8852 14.8471 68.3946 15.1796C67.908 15.5122 67.3139 15.6784 66.6124 15.6784C65.9879 15.6784 65.4384 15.5365 64.964 15.2526C64.4896 14.9688 64.1185 14.5653 63.8509 14.0422C63.5873 13.5191 63.4535 12.8926 63.4494 12.1627V6.21394H66.0406V11.7004C66.0447 12.2519 66.1927 12.6878 66.4846 13.0082C66.7766 13.3285 67.1679 13.4887 67.6586 13.4887C67.9708 13.4887 68.2628 13.4177 68.5345 13.2758C68.8062 13.1298 69.0251 12.9149 69.1914 12.631C69.3617 12.3472 69.4448 11.9964 69.4408 11.5788ZM77.5473 15.7088C76.8377 15.7088 76.195 15.5263 75.6191 15.1614C75.0474 14.7924 74.5932 14.251 74.2566 13.5374C73.9241 12.8196 73.7579 11.9397 73.7579 10.8975C73.7579 9.82698 73.9302 8.9369 74.2749 8.22727C74.6196 7.51358 75.0778 6.98034 75.6496 6.62755C76.2254 6.27071 76.8559 6.09229 77.5412 6.09229C78.0643 6.09229 78.5002 6.1815 78.849 6.35992C79.2018 6.53429 79.4856 6.75326 79.7005 7.01684C79.9195 7.27636 80.0858 7.53183 80.1993 7.78324H80.2784V3.09966H82.8635V15.5568H80.3088V14.0605H80.1993C80.0777 14.32 79.9053 14.5775 79.6823 14.8329C79.4633 15.0843 79.1774 15.2932 78.8247 15.4594C78.4759 15.6257 78.0501 15.7088 77.5473 15.7088ZM78.3685 13.6468C78.7861 13.6468 79.1389 13.5333 79.4268 13.3062C79.7188 13.0751 79.9418 12.7527 80.0959 12.3391C80.2541 11.9255 80.3331 11.4409 80.3331 10.8854C80.3331 10.3298 80.2561 9.84726 80.102 9.4377C79.9479 9.02814 79.7249 8.71185 79.4329 8.48882C79.1409 8.26579 78.7861 8.15428 78.3685 8.15428C77.9427 8.15428 77.5838 8.26985 77.2918 8.50098C76.9999 8.73212 76.7789 9.05247 76.6288 9.46203C76.4788 9.87159 76.4038 10.346 76.4038 10.8854C76.4038 11.4287 76.4788 11.9092 76.6288 12.3269C76.7829 12.7405 77.0039 13.0649 77.2918 13.3001C77.5838 13.5313 77.9427 13.6468 78.3685 13.6468ZM89.2517 15.7392C88.2906 15.7392 87.4634 15.5446 86.77 15.1553C86.0807 14.762 85.5494 14.2064 85.1764 13.4887C84.8033 12.7669 84.6168 11.9133 84.6168 10.9279C84.6168 9.96688 84.8033 9.12343 85.1764 8.39758C85.5494 7.67173 86.0746 7.10605 86.7518 6.70054C87.433 6.29504 88.2319 6.09229 89.1483 6.09229C89.7647 6.09229 90.3384 6.19164 90.8697 6.39033C91.4049 6.58498 91.8713 6.87897 92.2686 7.27231C92.6701 7.66565 92.9823 8.16036 93.2054 8.75645C93.4284 9.34849 93.5399 10.0419 93.5399 10.8367V11.5484H85.6508V9.94255H91.1008C91.1008 9.56949 91.0197 9.239 90.8575 8.95109C90.6953 8.66319 90.4702 8.43813 90.1823 8.27593C89.8985 8.10967 89.568 8.02654 89.1909 8.02654C88.7975 8.02654 88.4488 8.11778 88.1447 8.30026C87.8446 8.47868 87.6094 8.71996 87.4391 9.02409C87.2688 9.32416 87.1816 9.6587 87.1775 10.0277V11.5544C87.1775 12.0167 87.2627 12.4161 87.433 12.7527C87.6074 13.0893 87.8527 13.3488 88.169 13.5313C88.4853 13.7137 88.8604 13.805 89.2943 13.805C89.5822 13.805 89.8458 13.7644 90.085 13.6833C90.3243 13.6022 90.529 13.4806 90.6993 13.3184C90.8697 13.1562 90.9994 12.9575 91.0886 12.7223L93.4852 12.8804C93.3635 13.4562 93.1141 13.9591 92.737 14.3889C92.3639 14.8147 91.8814 15.1472 91.2894 15.3865C90.7014 15.6216 90.0222 15.7392 89.2517 15.7392ZM97.822 10.1554V15.5568H95.2309V6.21394H97.7004V7.86232H97.8099C98.0167 7.31894 98.3634 6.8891 98.85 6.57281C99.3366 6.25246 99.9266 6.09229 100.62 6.09229C101.269 6.09229 101.834 6.23421 102.317 6.51807C102.8 6.80192 103.175 7.20742 103.442 7.73458C103.71 8.25768 103.844 8.88216 103.844 9.60801V15.5568H101.253V10.0703C101.257 9.49853 101.111 9.05247 100.815 8.73212C100.519 8.40772 100.111 8.24552 99.5921 8.24552C99.2433 8.24552 98.9351 8.32053 98.6675 8.47057C98.4039 8.62061 98.1971 8.83958 98.0471 9.12749C97.9011 9.41134 97.8261 9.75399 97.822 10.1554ZM110.855 6.21394V8.16036H105.229V6.21394H110.855ZM106.506 3.97555H109.098V12.6858C109.098 12.925 109.134 13.1116 109.207 13.2454C109.28 13.3751 109.381 13.4664 109.511 13.5191C109.645 13.5718 109.799 13.5982 109.973 13.5982C110.095 13.5982 110.217 13.588 110.338 13.5678C110.46 13.5434 110.553 13.5252 110.618 13.513L111.026 15.4412C110.896 15.4817 110.714 15.5284 110.478 15.5811C110.243 15.6379 109.957 15.6723 109.621 15.6845C108.996 15.7088 108.449 15.6257 107.978 15.4351C107.512 15.2445 107.149 14.9485 106.89 14.5471C106.63 14.1456 106.502 13.6387 106.506 13.0264V3.97555ZM120.2 8.8781L117.828 9.02409C117.787 8.82133 117.7 8.63886 117.566 8.47665C117.432 8.3104 117.256 8.17861 117.037 8.08129C116.822 7.97991 116.564 7.92922 116.264 7.92922C115.863 7.92922 115.524 8.01438 115.249 8.18469C114.973 8.35095 114.835 8.57398 114.835 8.85377C114.835 9.0768 114.924 9.26536 115.103 9.41945C115.281 9.57354 115.587 9.69722 116.021 9.79049L117.712 10.1311C118.62 10.3176 119.298 10.6177 119.744 11.0313C120.19 11.4449 120.413 11.9883 120.413 12.6615C120.413 13.2738 120.232 13.8111 119.871 14.2733C119.514 14.7356 119.024 15.0965 118.399 15.356C117.779 15.6115 117.063 15.7392 116.252 15.7392C115.015 15.7392 114.03 15.4817 113.296 14.9668C112.566 14.4477 112.138 13.7421 112.013 12.85L114.561 12.7162C114.638 13.0933 114.825 13.3812 115.121 13.5799C115.417 13.7746 115.796 13.8719 116.258 13.8719C116.712 13.8719 117.077 13.7847 117.353 13.6103C117.633 13.4319 117.775 13.2028 117.779 12.923C117.775 12.6878 117.676 12.4952 117.481 12.3452C117.286 12.1911 116.986 12.0735 116.581 11.9924L114.963 11.67C114.05 11.4875 113.371 11.1712 112.925 10.7211C112.483 10.271 112.262 9.69722 112.262 8.99976C112.262 8.39961 112.424 7.88259 112.749 7.4487C113.077 7.01481 113.537 6.68027 114.129 6.44508C114.725 6.20988 115.423 6.09229 116.222 6.09229C117.402 6.09229 118.33 6.34167 119.008 6.84044C119.689 7.33921 120.086 8.01843 120.2 8.8781ZM124.216 3.09966V4.4135C124.216 4.78656 124.143 5.16774 123.997 5.55702C123.855 5.94225 123.664 6.3072 123.425 6.65188C123.186 6.99251 122.924 7.28244 122.64 7.52169L121.497 6.84653C121.7 6.52618 121.878 6.17136 122.032 5.78208C122.19 5.39279 122.269 4.94065 122.269 4.42566V3.09966H124.216ZM132.759 15.5568L129.194 3.09966H132.071L134.133 11.7552H134.237L136.512 3.09966H138.975L141.244 11.7734H141.353L143.415 3.09966H146.292L142.728 15.5568H140.161L137.789 7.4122H137.692L135.326 15.5568H132.759ZM150.908 15.7392C149.947 15.7392 149.119 15.5446 148.426 15.1553C147.737 14.762 147.205 14.2064 146.832 13.4887C146.459 12.7669 146.273 11.9133 146.273 10.9279C146.273 9.96688 146.459 9.12343 146.832 8.39758C147.205 7.67173 147.731 7.10605 148.408 6.70054C149.089 6.29504 149.888 6.09229 150.804 6.09229C151.421 6.09229 151.994 6.19164 152.526 6.39033C153.061 6.58498 153.527 6.87897 153.925 7.27231C154.326 7.66565 154.638 8.16036 154.861 8.75645C155.084 9.34849 155.196 10.0419 155.196 10.8367V11.5484H147.307V9.94255H152.757C152.757 9.56949 152.676 9.239 152.513 8.95109C152.351 8.66319 152.126 8.43813 151.838 8.27593C151.554 8.10967 151.224 8.02654 150.847 8.02654C150.453 8.02654 150.105 8.11778 149.801 8.30026C149.501 8.47868 149.265 8.71996 149.095 9.02409C148.925 9.32416 148.838 9.6587 148.833 10.0277V11.5544C148.833 12.0167 148.919 12.4161 149.089 12.7527C149.263 13.0893 149.509 13.3488 149.825 13.5313C150.141 13.7137 150.516 13.805 150.95 13.805C151.238 13.805 151.502 13.7644 151.741 13.6833C151.98 13.6022 152.185 13.4806 152.355 13.3184C152.526 13.1562 152.655 12.9575 152.745 12.7223L155.141 12.8804C155.019 13.4562 154.77 13.9591 154.393 14.3889C154.02 14.8147 153.537 15.1472 152.945 15.3865C152.357 15.6216 151.678 15.7392 150.908 15.7392ZM156.935 15.5568V3.09966H159.527V7.78324H159.606C159.719 7.53183 159.883 7.27636 160.098 7.01684C160.317 6.75326 160.601 6.53429 160.95 6.35992C161.303 6.1815 161.741 6.09229 162.264 6.09229C162.945 6.09229 163.574 6.27071 164.149 6.62755C164.725 6.98034 165.185 7.51358 165.53 8.22727C165.875 8.9369 166.047 9.82698 166.047 10.8975C166.047 11.9397 165.879 12.8196 165.542 13.5374C165.21 14.251 164.756 14.7924 164.18 15.1614C163.608 15.5263 162.967 15.7088 162.258 15.7088C161.755 15.7088 161.327 15.6257 160.974 15.4594C160.626 15.2932 160.34 15.0843 160.117 14.8329C159.894 14.5775 159.723 14.32 159.606 14.0605H159.49V15.5568H156.935ZM159.472 10.8854C159.472 11.4409 159.549 11.9255 159.703 12.3391C159.857 12.7527 160.08 13.0751 160.372 13.3062C160.664 13.5333 161.019 13.6468 161.437 13.6468C161.858 13.6468 162.215 13.5313 162.507 13.3001C162.799 13.0649 163.02 12.7405 163.17 12.3269C163.324 11.9092 163.401 11.4287 163.401 10.8854C163.401 10.346 163.326 9.87159 163.176 9.46203C163.026 9.05247 162.805 8.73212 162.513 8.50098C162.221 8.26985 161.862 8.15428 161.437 8.15428C161.015 8.15428 160.658 8.26579 160.366 8.48882C160.078 8.71185 159.857 9.02814 159.703 9.4377C159.549 9.84726 159.472 10.3298 159.472 10.8854ZM56.6081 23.4609H53.9439C53.8953 23.1162 53.7959 22.81 53.6459 22.5424C53.4958 22.2707 53.3032 22.0396 53.068 21.849C52.8328 21.6584 52.5611 21.5124 52.253 21.411C51.9488 21.3097 51.6183 21.259 51.2615 21.259C50.6167 21.259 50.0551 21.4192 49.5766 21.7395C49.0981 22.0558 48.7271 22.5181 48.4635 23.1263C48.1999 23.7305 48.0682 24.4645 48.0682 25.3282C48.0682 26.2163 48.1999 26.9624 48.4635 27.5666C48.7312 28.1708 49.1042 28.627 49.5827 28.9352C50.0612 29.2434 50.6147 29.3975 51.2433 29.3975C51.596 29.3975 51.9225 29.3508 52.2225 29.2576C52.5267 29.1643 52.7963 29.0284 53.0315 28.85C53.2667 28.6675 53.4614 28.4465 53.6155 28.187C53.7736 27.9275 53.8831 27.6315 53.9439 27.299L56.6081 27.3111C56.5391 27.8829 56.3668 28.4344 56.0911 28.9656C55.8194 29.4927 55.4524 29.9652 54.9901 30.3828C54.5319 30.7964 53.9845 31.1249 53.3478 31.3682C52.7152 31.6075 51.9995 31.7271 51.2007 31.7271C50.0896 31.7271 49.0961 31.4757 48.2202 30.9728C47.3484 30.47 46.659 29.7421 46.1521 28.7892C45.6493 27.8363 45.3979 26.6826 45.3979 25.3282C45.3979 23.9698 45.6534 22.8141 46.1643 21.8612C46.6752 20.9082 47.3687 20.1824 48.2445 19.6836C49.1204 19.1808 50.1058 18.9294 51.2007 18.9294C51.9225 18.9294 52.5916 19.0307 53.2079 19.2335C53.8283 19.4362 54.3778 19.7323 54.8563 20.1215C55.3348 20.5068 55.7241 20.9792 56.0241 21.5388C56.3283 22.0984 56.5229 22.7391 56.6081 23.4609ZM62.6694 31.7392C61.7245 31.7392 60.9074 31.5385 60.2181 31.1371C59.5328 30.7316 59.0036 30.1679 58.6305 29.4461C58.2575 28.7203 58.0709 27.8788 58.0709 26.9218C58.0709 25.9567 58.2575 25.1133 58.6305 24.3915C59.0036 23.6656 59.5328 23.102 60.2181 22.7005C60.9074 22.295 61.7245 22.0923 62.6694 22.0923C63.6142 22.0923 64.4292 22.295 65.1145 22.7005C65.8039 23.102 66.3351 23.6656 66.7082 24.3915C67.0812 25.1133 67.2678 25.9567 67.2678 26.9218C67.2678 27.8788 67.0812 28.7203 66.7082 29.4461C66.3351 30.1679 65.8039 30.7316 65.1145 31.1371C64.4292 31.5385 63.6142 31.7392 62.6694 31.7392ZM62.6815 29.732C63.1114 29.732 63.4702 29.6103 63.7581 29.367C64.046 29.1197 64.263 28.7831 64.409 28.3573C64.559 27.9316 64.634 27.447 64.634 26.9036C64.634 26.3602 64.559 25.8756 64.409 25.4499C64.263 25.0241 64.046 24.6875 63.7581 24.4402C63.4702 24.1928 63.1114 24.0691 62.6815 24.0691C62.2476 24.0691 61.8827 24.1928 61.5867 24.4402C61.2947 24.6875 61.0737 25.0241 60.9237 25.4499C60.7777 25.8756 60.7047 26.3602 60.7047 26.9036C60.7047 27.447 60.7777 27.9316 60.9237 28.3573C61.0737 28.7831 61.2947 29.1197 61.5867 29.367C61.8827 29.6103 62.2476 29.732 62.6815 29.732ZM68.9526 31.5568V22.2139H71.4222V23.8623H71.5317C71.7263 23.3149 72.0507 22.883 72.5049 22.5667C72.959 22.2504 73.5024 22.0923 74.135 22.0923C74.7757 22.0923 75.3211 22.2525 75.7712 22.5728C76.2213 22.8891 76.5214 23.3189 76.6714 23.8623H76.7687C76.9593 23.327 77.304 22.8992 77.8028 22.5789C78.3056 22.2545 78.8997 22.0923 79.585 22.0923C80.4568 22.0923 81.1644 22.3701 81.7078 22.9256C82.2552 23.4771 82.5289 24.2597 82.5289 25.2735V31.5568H79.9438V25.7844C79.9438 25.2654 79.806 24.8761 79.5302 24.6166C79.2545 24.357 78.9098 24.2273 78.4962 24.2273C78.0258 24.2273 77.6588 24.3773 77.3952 24.6774C77.1317 24.9734 76.9999 25.3647 76.9999 25.8513V31.5568H74.4878V25.7297C74.4878 25.2714 74.356 24.9065 74.0924 24.6348C73.8329 24.3631 73.4902 24.2273 73.0645 24.2273C72.7766 24.2273 72.517 24.3003 72.2859 24.4462C72.0588 24.5882 71.8784 24.7889 71.7445 25.0484C71.6107 25.3039 71.5438 25.604 71.5438 25.9486V31.5568H68.9526ZM84.5757 31.5568V22.2139H87.0452V23.8623H87.1547C87.3494 23.3149 87.6738 22.883 88.1279 22.5667C88.5821 22.2504 89.1255 22.0923 89.7581 22.0923C90.3988 22.0923 90.9442 22.2525 91.3943 22.5728C91.8444 22.8891 92.1445 23.3189 92.2945 23.8623H92.3918C92.5824 23.327 92.9271 22.8992 93.4259 22.5789C93.9287 22.2545 94.5227 22.0923 95.208 22.0923C96.0799 22.0923 96.7875 22.3701 97.3309 22.9256C97.8783 23.4771 98.152 24.2597 98.152 25.2735V31.5568H95.5669V25.7844C95.5669 25.2654 95.429 24.8761 95.1533 24.6166C94.8776 24.357 94.5329 24.2273 94.1193 24.2273C93.6489 24.2273 93.2819 24.3773 93.0183 24.6774C92.7547 24.9734 92.623 25.3647 92.623 25.8513V31.5568H90.1109V25.7297C90.1109 25.2714 89.9791 24.9065 89.7155 24.6348C89.456 24.3631 89.1133 24.2273 88.6875 24.2273C88.3996 24.2273 88.1401 24.3003 87.909 24.4462C87.6819 24.5882 87.5014 24.7889 87.3676 25.0484C87.2338 25.3039 87.1669 25.604 87.1669 25.9486V31.5568H84.5757ZM100.199 31.5568V22.2139H102.79V31.5568H100.199ZM101.5 21.0096C101.115 21.0096 100.785 20.8819 100.509 20.6264C100.237 20.3669 100.101 20.0567 100.101 19.6958C100.101 19.3389 100.237 19.0328 100.509 18.7773C100.785 18.5178 101.115 18.388 101.5 18.388C101.886 18.388 102.214 18.5178 102.486 18.7773C102.762 19.0328 102.899 19.3389 102.899 19.6958C102.899 20.0567 102.762 20.3669 102.486 20.6264C102.214 20.8819 101.886 21.0096 101.5 21.0096ZM109.835 22.2139V24.1604H104.209V22.2139H109.835ZM105.486 19.9756H108.077V28.6858C108.077 28.925 108.114 29.1116 108.187 29.2454C108.26 29.3751 108.361 29.4664 108.491 29.5191C108.625 29.5718 108.779 29.5982 108.953 29.5982C109.075 29.5982 109.196 29.588 109.318 29.5678C109.44 29.5434 109.533 29.5252 109.598 29.513L110.005 31.4412C109.876 31.4817 109.693 31.5284 109.458 31.5811C109.223 31.6379 108.937 31.6723 108.6 31.6845C107.976 31.7088 107.428 31.6257 106.958 31.4351C106.492 31.2445 106.129 30.9485 105.869 30.5471C105.61 30.1456 105.482 29.6387 105.486 29.0264V19.9756ZM116.492 22.2139V24.1604H110.866V22.2139H116.492ZM112.143 19.9756H114.735V28.6858C114.735 28.925 114.771 29.1116 114.844 29.2454C114.917 29.3751 115.018 29.4664 115.148 29.5191C115.282 29.5718 115.436 29.5982 115.61 29.5982C115.732 29.5982 115.854 29.588 115.975 29.5678C116.097 29.5434 116.19 29.5252 116.255 29.513L116.663 31.4412C116.533 31.4817 116.351 31.5284 116.115 31.5811C115.88 31.6379 115.594 31.6723 115.258 31.6845C114.633 31.7088 114.086 31.6257 113.615 31.4351C113.149 31.2445 112.786 30.9485 112.527 30.5471C112.267 30.1456 112.139 29.6387 112.143 29.0264V19.9756ZM122.338 31.7392C121.377 31.7392 120.55 31.5446 119.856 31.1553C119.167 30.762 118.636 30.2064 118.263 29.4887C117.889 28.7669 117.703 27.9133 117.703 26.9279C117.703 25.9669 117.889 25.1234 118.263 24.3976C118.636 23.6717 119.161 23.106 119.838 22.7005C120.519 22.295 121.318 22.0923 122.234 22.0923C122.851 22.0923 123.425 22.1916 123.956 22.3903C124.491 22.585 124.957 22.879 125.355 23.2723C125.756 23.6656 126.068 24.1604 126.291 24.7565C126.515 25.3485 126.626 26.0419 126.626 26.8367V27.5484H118.737V25.9426H124.187C124.187 25.5695 124.106 25.239 123.944 24.9511C123.781 24.6632 123.556 24.4381 123.268 24.2759C122.985 24.1097 122.654 24.0265 122.277 24.0265C121.884 24.0265 121.535 24.1178 121.231 24.3003C120.931 24.4787 120.696 24.72 120.525 25.0241C120.355 25.3242 120.268 25.6587 120.264 26.0277V27.5544C120.264 28.0167 120.349 28.4161 120.519 28.7527C120.694 29.0893 120.939 29.3488 121.255 29.5313C121.571 29.7137 121.947 29.805 122.38 29.805C122.668 29.805 122.932 29.7644 123.171 29.6833C123.41 29.6022 123.615 29.4806 123.785 29.3184C123.956 29.1562 124.086 28.9575 124.175 28.7223L126.571 28.8804C126.45 29.4562 126.2 29.9591 125.823 30.3889C125.45 30.8147 124.968 31.1472 124.375 31.3865C123.788 31.6216 123.108 31.7392 122.338 31.7392ZM132.575 31.7392C131.614 31.7392 130.787 31.5446 130.093 31.1553C129.404 30.762 128.873 30.2064 128.499 29.4887C128.126 28.7669 127.94 27.9133 127.94 26.9279C127.94 25.9669 128.126 25.1234 128.499 24.3976C128.873 23.6717 129.398 23.106 130.075 22.7005C130.756 22.295 131.555 22.0923 132.471 22.0923C133.088 22.0923 133.662 22.1916 134.193 22.3903C134.728 22.585 135.194 22.879 135.592 23.2723C135.993 23.6656 136.305 24.1604 136.528 24.7565C136.751 25.3485 136.863 26.0419 136.863 26.8367V27.5484H128.974V25.9426H134.424C134.424 25.5695 134.343 25.239 134.181 24.9511C134.018 24.6632 133.793 24.4381 133.505 24.2759C133.222 24.1097 132.891 24.0265 132.514 24.0265C132.121 24.0265 131.772 24.1178 131.468 24.3003C131.168 24.4787 130.932 24.72 130.762 25.0241C130.592 25.3242 130.505 25.6587 130.501 26.0277V27.5544C130.501 28.0167 130.586 28.4161 130.756 28.7527C130.93 29.0893 131.176 29.3488 131.492 29.5313C131.808 29.7137 132.183 29.805 132.617 29.805C132.905 29.805 133.169 29.7644 133.408 29.6833C133.647 29.6022 133.852 29.4806 134.022 29.3184C134.193 29.1562 134.323 28.9575 134.412 28.7223L136.808 28.8804C136.687 29.4562 136.437 29.9591 136.06 30.3889C135.687 30.8147 135.204 31.1472 134.612 31.3865C134.024 31.6216 133.345 31.7392 132.575 31.7392Z" fill="white"/>
</svg>
